<svg fill="none" height="82" viewBox="0 0 82 82" width="82" xmlns="http://www.w3.org/2000/svg"><path clip-rule="evenodd" d="m41 78.5833c-20.7567 0-37.58337-16.8266-37.58337-37.5833s16.82667-37.58333 37.58337-37.58333 37.5833 16.82663 37.5833 37.58333-16.8266 37.5833-37.5833 37.5833zm0-6.8333c16.9827 0 30.75-13.7672 30.75-30.75 0-16.9827-13.7673-30.75-30.75-30.75-16.9828 0-30.75 13.7673-30.75 30.75 0 16.9828 13.7672 30.75 30.75 30.75zm3.4166-20.5c0 5.6609 4.5891 10.25 10.25 10.25s10.25-4.5891 10.25-10.25-4.5891-10.25-10.25-10.25-10.25 4.5891-10.25 10.25zm10.25 3.4167c1.887 0 3.4167-1.5297 3.4167-3.4167s-1.5297-3.4167-3.4167-3.4167c-1.8869 0-3.4166 1.5297-3.4166 3.4167s1.5297 3.4167 3.4166 3.4167zm-37.5833-23.9167c0 5.6609 4.5891 10.25 10.25 10.25s10.25-4.5891 10.25-10.25-4.5891-10.25-10.25-10.25-10.25 4.5891-10.25 10.25zm10.25 3.4167c1.887 0 3.4167-1.5297 3.4167-3.4167s-1.5297-3.4167-3.4167-3.4167-3.4167 1.5297-3.4167 3.4167 1.5297 3.4167 3.4167 3.4167zm-.4033 27.3333h7.6399l20.5-41h-7.6399z" fill="#00e6b7" fill-rule="evenodd"/></svg>