<svg fill="none" height="82" viewBox="0 0 82 82" width="82" xmlns="http://www.w3.org/2000/svg"><path clip-rule="evenodd" d="m56.5568 6.8334c-4.9462-.00006-8.1345.58919-11.7894 2.37819-1.3532.66235-2.6227 1.46001-3.8017 2.39061-1.1336-.8784-2.3524-1.63947-3.6496-2.28107-3.7258-1.8428-7.0777-2.48779-11.8464-2.48779-12.7719 0-22.05307 10.58236-22.05307 24.32626 0 10.3794 5.78725 20.4057 16.56687 30.1009 5.6582 5.0889 12.8825 10.125 18.0563 12.8042l2.9602 1.5329 2.9601-1.5329c5.1738-2.6792 12.3981-7.7153 18.0563-12.8042 10.7796-9.6952 16.5669-19.7215 16.5669-30.1009 0-13.5985-9.3687-24.27378-22.0265-24.3262zm15.1932 24.3262c0 8.1317-4.8306 16.5006-14.3031 25.0202-5.1645 4.6449-11.8038 9.2867-16.4469 11.722-4.6432-2.4353-11.2825-7.0771-16.4469-11.722-9.4726-8.5196-14.3031-16.8885-14.3031-25.0202 0-10.1549 6.4357-17.4929 15.2197-17.4929 3.7916 0 6.128.4496 8.817 1.7795 1.5883.7856 2.9921 1.8229 4.2072 3.1192l2.514 2.6818 2.4912-2.7031c1.2425-1.3482 2.6669-2.4091 4.2724-3.195 2.6102-1.2776 4.8007-1.6824 8.7712-1.6824 8.6753.036 15.2073 7.4789 15.2073 17.4929z" fill="#00e6b7" fill-rule="evenodd"/></svg>