<svg width="82" height="82" viewBox="0 0 82 82" fill="none" xmlns="http://www.w3.org/2000/svg"><path fill-rule="evenodd" clip-rule="evenodd" d="M20.5 20.5H27.3334V17.0833H54.6667V20.5H61.5V17.0833H68.3334V27.3333H13.6667V17.0833H20.5V20.5ZM13.6667 34.1667V68.3333H47.8334V75.1667H13.6667C9.89276 75.1667 6.83337 72.1073 6.83337 68.3333V17.0833C6.83337 13.3094 9.89276 10.25 13.6667 10.25H20.5V6.83334H27.3334V10.25H54.6667V6.83334H61.5V10.25H68.3334C72.1073 10.25 75.1667 13.3094 75.1667 17.0833V47.8333H68.3334V34.1667H13.6667ZM58.0834 71.75V64.9167H64.9167V58.0833H71.75V64.9167H78.5834V71.75H71.75V78.5833H64.9167V71.75H58.0834Z" fill="#00E6B7"/></svg>